# Blender 5.0.1
# www.blender.org
mtllib glasses.mtl
o glasses
v 13.641363 3.557115 14.143002
v 13.641363 0.564284 14.143002
v 13.641363 3.557115 15.856997
v 13.641363 0.564285 15.856997
v -13.641361 3.557107 14.143003
v -13.641361 0.564277 14.143003
v -13.641361 3.557107 15.856998
v -13.641361 0.564277 15.856998
v 11.542691 0.564284 14.143002
v 9.444021 -3.557110 14.143002
v 7.345352 -3.557110 14.143002
v 5.246681 -3.557111 14.143003
v 3.148009 -1.933168 14.143003
v 1.049337 1.618417 14.143003
v -1.049334 1.618417 14.143003
v -3.148005 -1.933169 14.143003
v -5.246675 -3.557114 14.143003
v -7.345347 -3.557114 14.143003
v -9.444019 -3.557115 14.143003
v -11.542689 0.564278 14.143003
v 11.542691 3.557114 15.856997
v 9.444021 3.557113 15.856997
v 7.345350 3.557113 15.856997
v 5.246678 3.557112 15.856997
v 3.148008 3.557112 15.856997
v 1.049336 3.557111 15.856997
v -1.049335 3.557111 15.856997
v -3.148006 3.557110 15.856997
v -5.246678 3.557110 15.856997
v -7.345349 3.557109 15.856998
v -9.444019 3.557109 15.856998
v -11.542689 3.557108 15.856998
v -11.542689 0.564278 15.856998
v -9.444019 -3.557115 15.856998
v -7.345347 -3.557115 15.856998
v -5.246675 -3.557114 15.856997
v -3.148005 -1.933169 15.856997
v -1.049335 1.618417 15.856997
v 1.049336 1.618417 15.856997
v 3.148009 -1.933168 15.856997
v 5.246681 -3.557111 15.856997
v 7.345352 -3.557110 15.856997
v 9.444021 -3.557110 15.856997
v 11.542691 0.564284 15.856997
v -11.542689 3.557108 14.143003
v -9.444019 3.557109 14.143003
v -7.345349 3.557109 14.143003
v -5.246678 3.557110 14.143003
v -3.148007 3.557111 14.143003
v -1.049336 3.557111 14.143003
v 1.049335 3.557112 14.143003
v 3.148007 3.557112 14.143003
v 5.246678 3.557113 14.143003
v 7.345350 3.557113 14.143002
v 9.444021 3.557114 14.143002
v 11.542691 3.557114 14.143002
v 13.641363 1.888421 14.143002
v -13.641361 1.888414 15.856998
v 13.641363 1.888421 15.856997
v -13.641361 1.888414 14.143003
v -11.542689 1.888414 14.143003
v -9.444019 1.888415 14.143003
v -7.345348 1.888415 14.143003
v -5.246676 1.888416 14.143003
v -3.148007 1.888416 14.143003
v -1.049335 1.888417 14.143003
v 1.049336 1.888417 14.143003
v 3.148007 1.888418 14.143003
v 5.246679 1.888419 14.143003
v 7.345351 1.888419 14.143002
v 9.444021 1.888420 14.143002
v 11.542691 1.888420 14.143002
v 11.542691 1.888420 15.856997
v 9.444021 1.888420 15.856997
v 7.345351 1.888419 15.856997
v 5.246679 1.888419 15.856997
v 3.148008 1.888418 15.856997
v 1.049337 1.888417 15.856997
v -1.049335 1.888417 15.856997
v -3.148006 1.888416 15.856997
v -5.246676 1.888416 15.856997
v -7.345348 1.888415 15.856998
v -9.444019 1.888415 15.856998
v -11.542689 1.888414 15.856998
v 11.542690 3.557113 -0.630260
v 13.641362 3.557114 -0.630261
v -13.641362 3.557107 -0.630258
v -11.542690 3.557107 -0.630258
v 13.641362 1.888420 -0.630261
v -13.641362 1.888413 -0.630258
v -11.542690 1.888414 -0.630258
v 11.542690 1.888419 -0.630260
v 11.542689 1.065949 -6.531079
v 13.641361 1.065950 -6.531080
v -13.641363 1.065943 -6.531077
v -11.542691 1.065944 -6.531077
v 13.641361 -0.602744 -6.531080
v -13.641363 -0.602751 -6.531077
v -11.542691 -0.602750 -6.531077
v 11.542689 -0.602744 -6.531079
v 13.544907 3.531963 14.143002
v 13.562605 0.584821 14.147948
v 13.562605 3.536577 15.852049
v 13.562605 0.584822 15.852050
v -13.544905 3.531956 14.143003
v -13.562603 0.584814 14.147950
v -13.562603 3.536570 15.852051
v -13.562603 0.584814 15.852052
v 11.501481 0.576551 14.150618
v 9.371095 -3.535403 14.148011
v 7.345352 -3.531959 14.149061
v 5.310556 -3.533921 14.148114
v 3.244157 -1.927060 14.148900
v 1.090494 1.630929 14.150596
v -1.090492 1.630929 14.150596
v -3.244153 -1.927062 14.148900
v -5.310550 -3.533924 14.148114
v -7.345347 -3.531963 14.149063
v -9.371093 -3.535407 14.148013
v -11.501479 0.576545 14.150620
v 11.542691 3.531962 15.850938
v 9.444021 3.531961 15.850938
v 7.345350 3.531961 15.850938
v 5.246678 3.531960 15.850939
v 3.148008 3.531960 15.850939
v 1.049336 3.531959 15.850939
v -1.049335 3.531959 15.850939
v -3.148006 3.531958 15.850939
v -5.246678 3.531958 15.850939
v -7.345349 3.531957 15.850940
v -9.444019 3.531957 15.850940
v -11.542689 3.531956 15.850940
v -11.501479 0.576545 15.849383
v -9.371093 -3.535407 15.851990
v -7.345347 -3.531963 15.850940
v -5.310550 -3.533924 15.851888
v -3.244153 -1.927062 15.851100
v -1.090492 1.630929 15.849405
v 1.090493 1.630929 15.849405
v 3.244156 -1.927060 15.851100
v 5.310556 -3.533921 15.851888
v 7.345352 -3.531959 15.850938
v 9.371095 -3.535403 15.851988
v 11.501481 0.576551 15.849381
v -11.583817 3.524934 14.145587
v -9.444019 3.531957 14.149063
v -7.345349 3.531957 14.149063
v -5.246678 3.531958 14.149062
v -3.148007 3.531959 14.149062
v -1.049336 3.531959 14.149062
v 1.049335 3.531960 14.149062
v 3.148007 3.531960 14.149062
v 5.246678 3.531961 14.149062
v 7.345350 3.531961 14.149061
v 9.444021 3.531962 14.149061
v 11.583819 3.524940 14.145585
v 13.517978 1.899145 14.145585
v -13.544905 1.888414 15.850940
v 13.544907 1.888421 15.850938
v -13.517976 1.899138 14.145587
v -11.583817 1.899138 14.150755
v -9.444019 1.888415 14.151573
v -7.345348 1.888415 14.151573
v -5.246676 1.888416 14.151572
v -3.148007 1.888416 14.151572
v -1.049335 1.888417 14.151572
v 1.049336 1.888417 14.151572
v 3.148007 1.888418 14.151572
v 5.246679 1.888419 14.151572
v 7.345351 1.888419 14.151571
v 9.444021 1.888420 14.151571
v 11.583819 1.899144 14.150753
v 11.542691 1.888420 15.848428
v 9.444021 1.888420 15.848428
v 7.345351 1.888419 15.848428
v 5.246679 1.888419 15.848429
v 3.148008 1.888418 15.848429
v 1.049337 1.888417 15.848429
v -1.049335 1.888417 15.848429
v -3.148006 1.888416 15.848429
v -5.246676 1.888416 15.848429
v -7.345348 1.888415 15.848430
v -9.444019 1.888415 15.848430
v -11.542689 1.888414 15.848430
v 11.637615 3.531601 -0.629949
v 13.546439 3.531601 -0.629949
v -13.546439 3.531595 -0.629946
v -11.637615 3.531595 -0.629947
v 13.543324 1.913121 -0.630563
v -13.543324 1.913114 -0.630561
v -11.640731 1.913115 -0.630561
v 11.640731 1.913121 -0.630563
v 11.622199 1.046573 -6.525914
v 13.561852 1.046574 -6.525914
v -13.561854 1.046566 -6.525912
v -11.622201 1.046567 -6.525912
v 13.563307 -0.581099 -6.526372
v -13.563309 -0.581106 -6.526370
v -11.620748 -0.581105 -6.526370
v 11.620746 -0.581099 -6.526372
vn -0.0000 1.0000 -0.0000
vn -0.0000 -0.0000 1.0000
vn -1.0000 -0.0000 -0.0000
vn -0.0000 -1.0000 -0.0000
vn 1.0000 -0.0000 -0.0000
vn -0.0000 -0.0000 -1.0000
vn -0.8911 -0.4538 -0.0000
vn 0.6120 -0.7909 -0.0000
vn 0.8609 -0.5087 -0.0000
vn -0.8609 -0.5087 -0.0000
vn -0.6120 -0.7909 -0.0000
vn 0.8911 -0.4538 -0.0000
vn -0.0000 -0.9213 0.3889
vn -0.0000 0.9213 -0.3889
vn -0.0011 -1.0000 0.0018
vn -0.0006 -1.0000 0.0027
vn -0.0029 -1.0000 0.0034
vn -0.0024 -1.0000 0.0016
vn -0.0006 0.0003 -1.0000
vn -0.0011 0.0001 -1.0000
vn -0.0009 0.0011 -1.0000
vn -0.0004 0.0013 -1.0000
vn 0.9999 -0.0052 0.0104
vn 1.0000 -0.0003 0.0067
vn 0.9999 0.0114 0.0061
vn 0.9998 0.0136 0.0131
vn -0.0040 1.0000 -0.0000
vn -1.0000 -0.0003 0.0067
vn -0.9999 -0.0052 0.0104
vn -0.9998 0.0136 0.0131
vn -0.9999 0.0114 0.0061
vn 1.0000 0.0044 -0.0022
vn 1.0000 0.0055 -0.0019
vn -0.0000 1.0000 0.0009
vn -0.0010 0.0009 1.0000
vn -0.0003 0.0007 1.0000
vn -0.0005 0.0019 1.0000
vn -0.0010 0.0023 1.0000
vn -0.0000 0.0005 1.0000
vn -0.0000 0.0015 1.0000
vn 0.0001 0.0005 1.0000
vn 0.0001 0.0004 1.0000
vn 0.0017 0.0029 1.0000
vn -0.0001 -0.0005 1.0000
vn -0.0001 0.0004 1.0000
vn -0.0001 0.0005 1.0000
vn 0.0003 0.0007 1.0000
vn 0.0005 0.0019 1.0000
vn 0.0010 0.0009 1.0000
vn 0.0010 0.0023 1.0000
vn 0.0040 1.0000 -0.0000
vn 0.8879 0.4600 -0.0000
vn -0.0017 1.0000 -0.0000
vn -0.0004 1.0000 -0.0000
vn 0.0010 1.0000 -0.0000
vn -0.6139 0.7894 -0.0000
vn -0.8555 0.5178 -0.0000
vn 0.8555 0.5178 -0.0000
vn 0.6139 0.7894 -0.0000
vn -0.0010 1.0000 -0.0000
vn 0.0004 1.0000 -0.0000
vn 0.0017 1.0000 -0.0000
vn -0.8879 0.4600 -0.0000
vn 0.0011 0.0001 -1.0000
vn 0.0006 0.0003 -1.0000
vn 0.0004 0.0013 -1.0000
vn 0.0009 0.0011 -1.0000
vn 0.0001 0.0005 -1.0000
vn -0.0000 0.0015 -1.0000
vn -0.0000 0.0005 -1.0000
vn -0.0001 0.0005 -1.0000
vn -0.0001 0.0004 -1.0000
vn -0.0017 0.0028 -1.0000
vn 0.0001 -0.0005 -1.0000
vn 0.0001 0.0004 -1.0000
vn 0.0024 -1.0000 0.0016
vn 0.0029 -1.0000 0.0034
vn 0.0006 -1.0000 0.0027
vn 0.0011 -1.0000 0.0018
vn -0.0008 -1.0000 0.0010
vn 0.0008 -1.0000 0.0010
vn 0.0020 -0.0009 -1.0000
vn -0.0011 -0.0008 -1.0000
vn -0.0000 -0.0006 -1.0000
vn 0.0026 -0.0028 -1.0000
vn -0.0002 -0.0034 -1.0000
vn 0.0048 -0.0067 -1.0000
vn -0.0026 -0.0028 -1.0000
vn 0.0011 -0.0008 -1.0000
vn -0.0019 -0.0009 -1.0000
vn 0.0010 -0.0008 -1.0000
vn 0.0013 -0.0008 -1.0000
vn -0.0010 -0.0005 1.0000
vn 0.0021 0.0007 1.0000
vn -0.0000 -0.0006 1.0000
vn 0.0011 -0.0008 1.0000
vn -0.0026 -0.0028 1.0000
vn 0.0001 -0.0033 1.0000
vn -0.0048 -0.0067 1.0000
vn 0.0026 -0.0028 1.0000
vn -0.0011 -0.0008 1.0000
vn 0.0012 -0.0006 1.0000
vn -0.0021 0.0007 1.0000
vn -0.0020 0.0008 1.0000
vn 0.0020 0.0008 1.0000
vn -0.9997 -0.0238 0.0078
vn 0.9997 -0.0238 0.0078
vn -0.0013 -0.0008 -1.0000
vn -1.0000 0.0008 0.0008
vn -1.0000 0.0005 -0.0032
vn -1.0000 0.0007 -0.0001
vn -0.0000 0.9210 -0.3896
vn 0.0018 -1.0000 -0.0002
vn -0.0018 -1.0000 -0.0002
vn 1.0000 0.0010 0.0037
vn 1.0000 0.0007 -0.0001
vn 1.0000 0.0008 0.0008
vn -1.0000 0.0010 0.0037
vn -1.0000 0.0055 -0.0019
vn -1.0000 0.0044 -0.0022
vn -0.0000 -0.0003 1.0000
vn -0.0000 -0.9215 0.3884
vn 1.0000 0.0005 -0.0032
vt 0.855769 0.500000
vt 0.875000 0.500000
vt 0.875000 0.750000
vt 0.855769 0.750000
vt 0.566361 0.980769
vt 0.625000 0.980769
vt 0.625000 1.000000
vt 0.566361 1.000000
vt 0.566361 0.000000
vt 0.625000 0.000000
vt 0.625000 0.250000
vt 0.566361 0.250000
vt 0.355769 0.500000
vt 0.375000 0.500000
vt 0.375000 0.750000
vt 0.355769 0.750000
vt 0.566361 0.500000
vt 0.625000 0.500000
vt 0.625000 0.750000
vt 0.566361 0.750000
vt 0.566361 0.269231
vt 0.625000 0.269231
vt 0.625000 0.288462
vt 0.566361 0.288462
vt 0.625000 0.307692
vt 0.566361 0.307692
vt 0.625000 0.326923
vt 0.566361 0.326923
vt 0.625000 0.346154
vt 0.566361 0.346154
vt 0.625000 0.365385
vt 0.566361 0.365385
vt 0.625000 0.384615
vt 0.566361 0.384615
vt 0.625000 0.403846
vt 0.566361 0.403846
vt 0.625000 0.423077
vt 0.566361 0.423077
vt 0.625000 0.442308
vt 0.566361 0.442308
vt 0.625000 0.461538
vt 0.566361 0.461538
vt 0.625000 0.480769
vt 0.566361 0.480769
vt 0.125000 0.500000
vt 0.144231 0.500000
vt 0.144231 0.750000
vt 0.125000 0.750000
vt 0.163462 0.500000
vt 0.163462 0.750000
vt 0.182692 0.500000
vt 0.182692 0.750000
vt 0.201923 0.500000
vt 0.201923 0.750000
vt 0.221154 0.500000
vt 0.221154 0.750000
vt 0.240385 0.500000
vt 0.240385 0.750000
vt 0.259615 0.500000
vt 0.259615 0.750000
vt 0.278846 0.500000
vt 0.278846 0.750000
vt 0.298077 0.500000
vt 0.298077 0.750000
vt 0.317308 0.500000
vt 0.317308 0.750000
vt 0.336538 0.500000
vt 0.336538 0.750000
vt 0.625000 0.769231
vt 0.566361 0.769231
vt 0.625000 0.788462
vt 0.566361 0.788462
vt 0.625000 0.807692
vt 0.566361 0.807692
vt 0.625000 0.826923
vt 0.566361 0.826923
vt 0.625000 0.846154
vt 0.566361 0.846154
vt 0.625000 0.865385
vt 0.566361 0.865385
vt 0.625000 0.884615
vt 0.566361 0.884615
vt 0.625000 0.903846
vt 0.566361 0.903846
vt 0.625000 0.923077
vt 0.566361 0.923077
vt 0.625000 0.942308
vt 0.566361 0.942308
vt 0.625000 0.961538
vt 0.566361 0.961538
vt 0.644231 0.500000
vt 0.644231 0.750000
vt 0.663462 0.500000
vt 0.663462 0.750000
vt 0.682692 0.500000
vt 0.682692 0.750000
vt 0.701923 0.500000
vt 0.701923 0.750000
vt 0.721154 0.500000
vt 0.721154 0.750000
vt 0.740385 0.500000
vt 0.740385 0.750000
vt 0.759615 0.500000
vt 0.759615 0.750000
vt 0.778846 0.500000
vt 0.778846 0.750000
vt 0.798077 0.500000
vt 0.798077 0.750000
vt 0.817308 0.500000
vt 0.817308 0.750000
vt 0.836538 0.500000
vt 0.836538 0.750000
vt 0.375000 0.961538
vt 0.375000 0.980769
vt 0.375000 0.942308
vt 0.375000 0.923077
vt 0.375000 0.903846
vt 0.375000 0.884615
vt 0.375000 0.865385
vt 0.375000 0.846154
vt 0.375000 0.826923
vt 0.375000 0.807692
vt 0.375000 0.788462
vt 0.375000 0.769231
vt 0.375000 0.461538
vt 0.375000 0.480769
vt 0.375000 0.442308
vt 0.375000 0.423077
vt 0.375000 0.403846
vt 0.375000 0.384615
vt 0.375000 0.365385
vt 0.375000 0.346154
vt 0.375000 0.326923
vt 0.375000 0.307692
vt 0.375000 0.288462
vt 0.375000 0.269231
vt 0.375000 0.250000
vt 0.375000 0.000000
vt 0.375000 1.000000
s 1
usemtl Material.001
f 45/1/1 5/2/1 7/3/1 32/4/1
f 84/5/2 32/6/2 7/7/2 58/8/2
f 58/9/3 7/10/3 5/11/3 60/12/3
f 9/13/4 2/14/4 4/15/4 44/16/4
f 57/17/5 1/18/5 3/19/5 59/20/5
f 60/12/3 5/11/3 87/11/3 90/12/3
f 61/21/4 60/12/4 90/12/4 91/21/4
f 61/21/6 45/22/6 46/23/6 62/24/6
f 62/24/6 46/23/6 47/25/6 63/26/6
f 63/26/6 47/25/6 48/27/6 64/28/6
f 64/28/6 48/27/6 49/29/6 65/30/6
f 65/30/6 49/29/6 50/31/6 66/32/6
f 66/32/6 50/31/6 51/33/6 67/34/6
f 67/34/6 51/33/6 52/35/6 68/36/6
f 68/36/6 52/35/6 53/37/6 69/38/6
f 69/38/6 53/37/6 54/39/6 70/40/6
f 70/40/6 54/39/6 55/41/6 71/42/6
f 71/42/6 55/41/6 56/43/6 72/44/6
f 6/45/4 20/46/4 33/47/4 8/48/4
f 20/46/7 19/49/7 34/50/7 33/47/7
f 19/49/4 18/51/4 35/52/4 34/50/4
f 18/51/4 17/53/4 36/54/4 35/52/4
f 17/53/8 16/55/8 37/56/8 36/54/8
f 16/55/9 15/57/9 38/58/9 37/56/9
f 15/57/4 14/59/4 39/60/4 38/58/4
f 14/59/10 13/61/10 40/62/10 39/60/10
f 13/61/11 12/63/11 41/64/11 40/62/11
f 12/63/4 11/65/4 42/66/4 41/64/4
f 11/65/4 10/67/4 43/68/4 42/66/4
f 10/67/12 9/13/12 44/16/12 43/68/12
f 59/20/2 3/19/2 21/69/2 73/70/2
f 73/70/2 21/69/2 22/71/2 74/72/2
f 74/72/2 22/71/2 23/73/2 75/74/2
f 75/74/2 23/73/2 24/75/2 76/76/2
f 76/76/2 24/75/2 25/77/2 77/78/2
f 77/78/2 25/77/2 26/79/2 78/80/2
f 78/80/2 26/79/2 27/81/2 79/82/2
f 79/82/2 27/81/2 28/83/2 80/84/2
f 80/84/2 28/83/2 29/85/2 81/86/2
f 81/86/2 29/85/2 30/87/2 82/88/2
f 82/88/2 30/87/2 31/89/2 83/90/2
f 83/90/2 31/89/2 32/6/2 84/5/2
f 1/18/1 56/91/1 21/92/1 3/19/1
f 56/91/1 55/93/1 22/94/1 21/92/1
f 55/93/1 54/95/1 23/96/1 22/94/1
f 54/95/1 53/97/1 24/98/1 23/96/1
f 53/97/1 52/99/1 25/100/1 24/98/1
f 52/99/1 51/101/1 26/102/1 25/100/1
f 51/101/1 50/103/1 27/104/1 26/102/1
f 50/103/1 49/105/1 28/106/1 27/104/1
f 49/105/1 48/107/1 29/108/1 28/106/1
f 48/107/1 47/109/1 30/110/1 29/108/1
f 47/109/1 46/111/1 31/112/1 30/110/1
f 46/111/1 45/1/1 32/4/1 31/112/1
f 34/113/2 83/90/2 84/5/2 33/114/2
f 35/115/2 82/88/2 83/90/2 34/113/2
f 36/116/2 81/86/2 82/88/2 35/115/2
f 37/117/2 80/84/2 81/86/2 36/116/2
f 38/118/2 79/82/2 80/84/2 37/117/2
f 39/119/2 78/80/2 79/82/2 38/118/2
f 40/120/2 77/78/2 78/80/2 39/119/2
f 41/121/2 76/76/2 77/78/2 40/120/2
f 42/122/2 75/74/2 76/76/2 41/121/2
f 43/123/2 74/72/2 75/74/2 42/122/2
f 44/124/2 73/70/2 74/72/2 43/123/2
f 4/15/2 59/20/2 73/70/2 44/124/2
f 10/125/6 71/42/6 72/44/6 9/126/6
f 11/127/6 70/40/6 71/42/6 10/125/6
f 12/128/6 69/38/6 70/40/6 11/127/6
f 13/129/6 68/36/6 69/38/6 12/128/6
f 14/130/6 67/34/6 68/36/6 13/129/6
f 15/131/6 66/32/6 67/34/6 14/130/6
f 16/132/6 65/30/6 66/32/6 15/131/6
f 17/133/6 64/28/6 65/30/6 16/132/6
f 18/134/6 63/26/6 64/28/6 17/133/6
f 19/135/6 62/24/6 63/26/6 18/134/6
f 20/136/6 61/21/6 62/24/6 19/135/6
f 6/137/6 60/12/6 61/21/6 20/136/6
f 9/126/6 72/44/6 57/17/6 2/14/6
f 2/14/5 57/17/5 59/20/5 4/15/5
f 8/138/3 58/9/3 60/12/3 6/137/3
f 33/114/2 84/5/2 58/8/2 8/139/2
f 88/22/5 91/21/5 99/21/5 96/22/5
f 91/21/13 90/12/13 98/12/13 99/21/13
f 56/91/1 1/18/1 86/18/1 85/91/1
f 57/17/4 72/44/4 92/44/4 89/17/4
f 5/2/1 45/1/1 88/1/1 87/2/1
f 72/44/3 56/43/3 85/43/3 92/44/3
f 45/22/5 61/21/5 91/21/5 88/22/5
f 1/18/5 57/17/5 89/17/5 86/18/5
f 100/44/6 93/43/6 94/18/6 97/17/6
f 98/12/6 95/11/6 96/22/6 99/21/6
f 86/18/5 89/17/5 97/17/5 94/18/5
f 85/91/14 86/18/14 94/18/14 93/91/14
f 89/17/13 92/44/13 100/44/13 97/17/13
f 92/44/3 85/43/3 93/43/3 100/44/3
f 90/12/3 87/11/3 95/11/3 98/12/3
f 87/2/14 88/1/14 96/1/14 95/2/14
f 145/1/15 132/4/16 107/3/17 105/2/18
f 184/5/19 158/8/20 107/7/21 132/6/22
f 158/9/23 160/12/24 105/11/25 107/10/26
f 109/13/27 144/16/27 104/15/27 102/14/27
f 157/17/28 159/20/29 103/19/30 101/18/31
f 160/12/24 190/12/32 187/11/33 105/11/25
f 161/21/34 191/21/34 190/12/34 160/12/34
f 161/21/35 162/24/36 146/23/37 145/22/38
f 162/24/36 163/26/39 147/25/40 146/23/37
f 163/26/39 164/28/41 148/27/40 147/25/40
f 164/28/41 165/30/42 149/29/40 148/27/40
f 165/30/42 166/32/43 150/31/40 149/29/40
f 166/32/43 167/34/44 151/33/40 150/31/40
f 167/34/44 168/36/45 152/35/40 151/33/40
f 168/36/45 169/38/46 153/37/40 152/35/40
f 169/38/46 170/40/39 154/39/40 153/37/40
f 170/40/39 171/42/47 155/41/48 154/39/40
f 171/42/47 172/44/49 156/43/50 155/41/48
f 106/45/51 108/48/51 133/47/51 120/46/51
f 120/46/52 133/47/52 134/50/52 119/49/52
f 119/49/53 134/50/53 135/52/54 118/51/54
f 118/51/54 135/52/54 136/54/55 117/53/55
f 117/53/56 136/54/56 137/56/56 116/55/56
f 116/55/57 137/56/57 138/58/57 115/57/57
f 115/57/1 138/58/1 139/60/1 114/59/1
f 114/59/58 139/60/58 140/62/58 113/61/58
f 113/61/59 140/62/59 141/64/59 112/63/59
f 112/63/60 141/64/60 142/66/61 111/65/61
f 111/65/61 142/66/61 143/68/62 110/67/62
f 110/67/63 143/68/63 144/16/63 109/13/63
f 159/20/64 173/70/65 121/69/66 103/19/67
f 173/70/65 174/72/68 122/71/69 121/69/66
f 174/72/68 175/74/70 123/73/69 122/71/69
f 175/74/70 176/76/71 124/75/69 123/73/69
f 176/76/71 177/78/72 125/77/69 124/75/69
f 177/78/72 178/80/73 126/79/69 125/77/69
f 178/80/73 179/82/74 127/81/69 126/79/69
f 179/82/74 180/84/75 128/83/69 127/81/69
f 180/84/75 181/86/68 129/85/69 128/83/69
f 181/86/68 182/88/70 130/87/69 129/85/69
f 182/88/70 183/90/71 131/89/69 130/87/69
f 183/90/71 184/5/19 132/6/22 131/89/69
f 101/18/76 103/19/77 121/92/78 156/91/79
f 156/91/79 121/92/78 122/94/80 155/93/80
f 155/93/80 122/94/80 123/96/4 154/95/4
f 154/95/4 123/96/4 124/98/4 153/97/4
f 153/97/4 124/98/4 125/100/4 152/99/4
f 152/99/4 125/100/4 126/102/4 151/101/4
f 151/101/4 126/102/4 127/104/4 150/103/4
f 150/103/4 127/104/4 128/106/4 149/105/4
f 149/105/4 128/106/4 129/108/4 148/107/4
f 148/107/4 129/108/4 130/110/4 147/109/4
f 147/109/4 130/110/4 131/112/81 146/111/81
f 146/111/81 131/112/81 132/4/16 145/1/15
f 134/113/82 133/114/83 184/5/19 183/90/71
f 135/115/84 134/113/82 183/90/71 182/88/70
f 136/116/83 135/115/84 182/88/70 181/86/68
f 137/117/85 136/116/83 181/86/68 180/84/75
f 138/118/86 137/117/85 180/84/75 179/82/74
f 139/119/87 138/118/86 179/82/74 178/80/73
f 140/120/88 139/119/87 178/80/73 177/78/72
f 141/121/89 140/120/88 177/78/72 176/76/71
f 142/122/84 141/121/89 176/76/71 175/74/70
f 143/123/90 142/122/84 175/74/70 174/72/68
f 144/124/91 143/123/90 174/72/68 173/70/65
f 104/15/92 144/124/91 173/70/65 159/20/64
f 110/125/93 109/126/94 172/44/49 171/42/47
f 111/127/95 110/125/93 171/42/47 170/40/39
f 112/128/96 111/127/95 170/40/39 169/38/46
f 113/129/97 112/128/96 169/38/46 168/36/45
f 114/130/98 113/129/97 168/36/45 167/34/44
f 115/131/99 114/130/98 167/34/44 166/32/43
f 116/132/100 115/131/99 166/32/43 165/30/42
f 117/133/101 116/132/100 165/30/42 164/28/41
f 118/134/95 117/133/101 164/28/41 163/26/39
f 119/135/102 118/134/95 163/26/39 162/24/36
f 120/136/103 119/135/102 162/24/36 161/21/35
f 106/137/104 120/136/103 161/21/35 160/12/104
f 109/126/94 102/14/105 157/17/105 172/44/49
f 102/14/106 104/15/106 159/20/29 157/17/28
f 108/138/107 106/137/107 160/12/24 158/9/23
f 133/114/83 108/139/108 158/8/20 184/5/19
f 188/22/109 196/22/110 199/21/110 191/21/111
f 191/21/112 199/21/112 198/12/112 190/12/112
f 156/91/79 185/91/113 186/18/113 101/18/76
f 157/17/34 189/17/34 192/44/34 172/44/34
f 105/2/18 187/2/114 188/1/114 145/1/15
f 172/44/115 192/44/116 185/43/117 156/43/115
f 145/22/118 188/22/109 191/21/111 161/21/118
f 101/18/31 186/18/119 189/17/120 157/17/28
f 200/44/121 197/17/121 194/18/121 193/43/121
f 198/12/121 199/21/121 196/22/121 195/11/121
f 186/18/119 194/18/110 197/17/110 189/17/120
f 185/91/122 193/91/122 194/18/122 186/18/122
f 189/17/112 197/17/112 200/44/112 192/44/112
f 192/44/116 200/44/123 193/43/123 185/43/117
f 190/12/32 198/12/123 195/11/123 187/11/33
f 187/2/122 195/2/122 196/1/122 188/1/122
